REM DIRINDEX 1\2,1\3\5,1\3\6,1\4\7,1\4\8
REM DIRNAME folder01,folder02,folder03,folder04,folder05,folder06,folder07,folder08
TITLE ""
FILE "" MP3
  TRACK 01 AUDIO
    TITLE "0:"
    INDEX 01 00:00:00
  TRACK 02 AUDIO
    TITLE "7:cjc139_2697"
    INDEX 01 00:00:17
  TRACK 03 AUDIO
    TITLE "0:"
    INDEX 01 00:03:00
  TRACK 04 AUDIO
    TITLE "8:cjc139_2698"
    INDEX 01 00:05:61
  TRACK 05 AUDIO
    TITLE "0:"
    INDEX 01 00:07:56
  TRACK 06 AUDIO
    TITLE "7:cjc139_2699"
    INDEX 01 00:10:39
  TRACK 07 AUDIO
    TITLE "0:"
    INDEX 01 00:13:41
  TRACK 08 AUDIO
    TITLE "8:cjc139_2700"
    INDEX 01 00:16:24
  TRACK 09 AUDIO
    TITLE "0:"
    INDEX 01 00:18:58
  TRACK 10 AUDIO
    TITLE "7:cjc139_2701"
    INDEX 01 00:21:43
  TRACK 11 AUDIO
    TITLE "0:"
    INDEX 01 00:23:50
  TRACK 12 AUDIO
    TITLE "8:cjc139_2702"
    INDEX 01 00:26:34
  TRACK 13 AUDIO
    TITLE "0:"
    INDEX 01 00:28:39
  TRACK 14 AUDIO
    TITLE "7:cjc139_2703"
    INDEX 01 00:31:26
  TRACK 15 AUDIO
    TITLE "0:"
    INDEX 01 00:33:44
  TRACK 16 AUDIO
    TITLE "8:cjc139_2704"
    INDEX 01 00:36:31
  TRACK 17 AUDIO
    TITLE "0:"
    INDEX 01 00:38:41
  TRACK 18 AUDIO
    TITLE "7:cjc139_2705"
    INDEX 01 00:41:28
  TRACK 19 AUDIO
    TITLE "0:"
    INDEX 01 00:44:14
  TRACK 20 AUDIO
    TITLE "8:cjc139_2706"
    INDEX 01 00:46:74
  TRACK 21 AUDIO
    TITLE "0:"
    INDEX 01 00:49:63
  TRACK 22 AUDIO
    TITLE "7:cjc139_2707"
    INDEX 01 00:52:49
  TRACK 23 AUDIO
    TITLE "0:"
    INDEX 01 00:55:55
  TRACK 24 AUDIO
    TITLE "8:cjc139_2708"
    INDEX 01 00:58:40
  TRACK 25 AUDIO
    TITLE "0:"
    INDEX 01 01:01:27
  TRACK 26 AUDIO
    TITLE "7:cjc139_2709"
    INDEX 01 01:04:11
  TRACK 27 AUDIO
    TITLE "0:"
    INDEX 01 01:06:49
  TRACK 28 AUDIO
    TITLE "8:cjc139_2710"
    INDEX 01 01:09:36
  TRACK 29 AUDIO
    TITLE "0:"
    INDEX 01 01:12:15
  TRACK 30 AUDIO
    TITLE "7:cjc139_2711"
    INDEX 01 01:15:01
  TRACK 31 AUDIO
    TITLE "0:"
    INDEX 01 01:17:41
  TRACK 32 AUDIO
    TITLE "8:cjc139_2712"
    INDEX 01 01:20:20
  TRACK 33 AUDIO
    TITLE "0:"
    INDEX 01 01:22:23
  TRACK 34 AUDIO
    TITLE "7:cjc139_2713"
    INDEX 01 01:25:09
  TRACK 35 AUDIO
    TITLE "0:"
    INDEX 01 01:27:36
  TRACK 36 AUDIO
    TITLE "8:cjc139_2714"
    INDEX 01 01:30:20
  TRACK 37 AUDIO
    TITLE "0:"
    INDEX 01 01:32:49
  TRACK 38 AUDIO
    TITLE "7:cjc139_2715"
    INDEX 01 01:35:35
  TRACK 39 AUDIO
    TITLE "0:"
    INDEX 01 01:37:56
  TRACK 40 AUDIO
    TITLE "8:cjc139_2716"
    INDEX 01 01:40:40
  TRACK 41 AUDIO
    TITLE "0:"
    INDEX 01 01:42:49
  TRACK 42 AUDIO
    TITLE "7:cjc139_2717"
    INDEX 01 01:45:36
  TRACK 43 AUDIO
    TITLE "0:"
    INDEX 01 01:48:16
  TRACK 44 AUDIO
    TITLE "8:cjc139_2718"
    INDEX 01 01:50:72
  TRACK 45 AUDIO
    TITLE "0:"
    INDEX 01 01:53:20
  TRACK 46 AUDIO
    TITLE "7:cjc139_2719"
    INDEX 01 01:56:06
  TRACK 47 AUDIO
    TITLE "0:"
    INDEX 01 01:57:47
  TRACK 48 AUDIO
    TITLE "8:cjc139_2720"
    INDEX 01 02:00:29
  TRACK 49 AUDIO
    TITLE "0:"
    INDEX 01 02:02:50
  TRACK 50 AUDIO
    TITLE "7:cjc139_2721"
    INDEX 01 02:05:38
  TRACK 51 AUDIO
    TITLE "0:"
    INDEX 01 02:07:69
  TRACK 52 AUDIO
    TITLE "8:cjc139_2722"
    INDEX 01 02:10:53
  TRACK 53 AUDIO
    TITLE "0:"
    INDEX 01 02:12:68
  TRACK 54 AUDIO
    TITLE "7:cjc139_2723"
    INDEX 01 02:15:54
  TRACK 55 AUDIO
    TITLE "0:"
    INDEX 01 02:17:59
  TRACK 56 AUDIO
    TITLE "8:cjc139_2724"
    INDEX 01 02:20:44
  TRACK 57 AUDIO
    TITLE "0:"
    INDEX 01 02:22:68
  TRACK 58 AUDIO
    TITLE "7:cjc139_2725"
    INDEX 01 02:25:55
  TRACK 59 AUDIO
    TITLE "0:"
    INDEX 01 02:26:72
  TRACK 60 AUDIO
    TITLE "8:cjc139_2726"
    INDEX 01 02:29:58
  TRACK 61 AUDIO
    TITLE "0:"
    INDEX 01 02:31:12
  TRACK 62 AUDIO
    TITLE "7:cjc139_2727"
    INDEX 01 02:33:74
  TRACK 63 AUDIO
    TITLE "0:"
    INDEX 01 02:37:11
  TRACK 64 AUDIO
    TITLE "8:cjc139_2728"
    INDEX 01 02:40:00
  TRACK 65 AUDIO
    TITLE "0:"
    INDEX 01 02:42:65
  TRACK 66 AUDIO
    TITLE "7:cjc139_2729"
    INDEX 01 02:45:50
  TRACK 67 AUDIO
    TITLE "0:"
    INDEX 01 02:48:60
  TRACK 68 AUDIO
    TITLE "8:cjc139_2730"
    INDEX 01 02:51:44
  TRACK 69 AUDIO
    TITLE "0:"
    INDEX 01 02:54:31
  TRACK 70 AUDIO
    TITLE "7:cjc139_2731"
    INDEX 01 02:57:18
  TRACK 71 AUDIO
    TITLE "0:"
    INDEX 01 03:00:20
  TRACK 72 AUDIO
    TITLE "8:cjc139_2732"
    INDEX 01 03:03:08
  TRACK 73 AUDIO
    TITLE "0:"
    INDEX 01 03:06:07
  TRACK 74 AUDIO
    TITLE "7:cjc139_2733"
    INDEX 01 03:08:64
  TRACK 75 AUDIO
    TITLE "0:"
    INDEX 01 03:10:63
  TRACK 76 AUDIO
    TITLE "8:cjc139_2734"
    INDEX 01 03:13:50
  TRACK 77 AUDIO
    TITLE "0:"
    INDEX 01 03:16:13
  TRACK 78 AUDIO
    TITLE "7:cjc139_2735"
    INDEX 01 03:19:00
  TRACK 79 AUDIO
    TITLE "0:"
    INDEX 01 03:21:59
  TRACK 80 AUDIO
    TITLE "8:cjc139_2736"
    INDEX 01 03:24:42
  TRACK 81 AUDIO
    TITLE "0:"
    INDEX 01 03:27:03
  TRACK 82 AUDIO
    TITLE "7:cjc139_2737"
    INDEX 01 03:29:65
  TRACK 83 AUDIO
    TITLE "0:"
    INDEX 01 03:33:08
  TRACK 84 AUDIO
    TITLE "8:cjc139_2738"
    INDEX 01 03:35:67
  TRACK 85 AUDIO
    TITLE "0:"
    INDEX 01 03:38:22
  TRACK 86 AUDIO
    TITLE "7:cjc139_2739"
    INDEX 01 03:41:07
  TRACK 87 AUDIO
    TITLE "0:"
    INDEX 01 03:43:71
  TRACK 88 AUDIO
    TITLE "8:cjc139_2740"
    INDEX 01 03:46:55
  TRACK 89 AUDIO
    TITLE "0:"
    INDEX 01 03:49:20
  TRACK 90 AUDIO
    TITLE "7:cjc139_2741"
    INDEX 01 03:52:05
  TRACK 91 AUDIO
    TITLE "0:"
    INDEX 01 03:54:39
  TRACK 92 AUDIO
    TITLE "8:cjc139_2742"
    INDEX 01 03:57:26
  TRACK 93 AUDIO
    TITLE "0:"
    INDEX 01 03:59:60
  TRACK 94 AUDIO
    TITLE "7:cjc139_2743"
    INDEX 01 04:02:46
  TRACK 95 AUDIO
    TITLE "0:"
    INDEX 01 04:04:71
  TRACK 96 AUDIO
    TITLE "8:cjc139_2744"
    INDEX 01 04:07:59
  TRACK 97 AUDIO
    TITLE "0:"
    INDEX 01 04:10:36
  TRACK 98 AUDIO
    TITLE "7:cjc139_2745"
    INDEX 01 04:13:23
  TRACK 99 AUDIO
    TITLE "0:"
    INDEX 01 04:17:22
  TRACK 100 AUDIO
    TITLE "8:cjc139_2746"
    INDEX 01 04:20:05
  TRACK 101 AUDIO
    TITLE "0:"
    INDEX 01 04:22:61
  TRACK 102 AUDIO
    TITLE "7:cjc139_2747"
    INDEX 01 04:25:45
  TRACK 103 AUDIO
    TITLE "0:"
    INDEX 01 04:28:42
  TRACK 104 AUDIO
    TITLE "8:cjc139_2748"
    INDEX 01 04:31:28
  TRACK 105 AUDIO
    TITLE "0:"
    INDEX 01 04:33:55
  TRACK 106 AUDIO
    TITLE "7:cjc139_2749"
    INDEX 01 04:36:43
  TRACK 107 AUDIO
    TITLE "0:"
    INDEX 01 04:39:18
  TRACK 108 AUDIO
    TITLE "8:cjc139_2750"
    INDEX 01 04:42:05
  TRACK 109 AUDIO
    TITLE "0:"
    INDEX 01 04:44:33
  TRACK 110 AUDIO
    TITLE "7:cjc139_2751"
    INDEX 01 04:47:18
  TRACK 111 AUDIO
    TITLE "0:"
    INDEX 01 04:49:38
  TRACK 112 AUDIO
    TITLE "8:cjc139_2752"
    INDEX 01 04:52:25
  TRACK 113 AUDIO
    TITLE "0:"
    INDEX 01 04:54:35
  TRACK 114 AUDIO
    TITLE "7:cjc139_2753"
    INDEX 01 04:57:20
  TRACK 115 AUDIO
    TITLE "0:"
    INDEX 01 05:00:34
  TRACK 116 AUDIO
    TITLE "8:cjc139_2754"
    INDEX 01 05:03:21
  TRACK 117 AUDIO
    TITLE "0:"
    INDEX 01 05:05:70
  TRACK 118 AUDIO
    TITLE "7:cjc139_2755"
    INDEX 01 05:08:53
  TRACK 119 AUDIO
    TITLE "0:"
    INDEX 01 05:11:73
  TRACK 120 AUDIO
    TITLE "8:cjc139_2756"
    INDEX 01 05:14:60
  TRACK 121 AUDIO
    TITLE "0:"
    INDEX 01 05:17:68
